<svg width="41" height="40" viewBox="0 0 41 40" fill="none" xmlns="http://www.w3.org/2000/svg">
<path d="M39.6341 7.98232C39.2374 3.88484 36.2326 0.889977 32.1229 0.495759C29.2656 0.221001 25.3309 0 20.0657 0C14.8006 0 11.0396 0.216223 8.20032 0.481424C3.9815 0.876837 0.896498 3.97802 0.493793 8.18182C0.21933 11.0345 0 14.9122 0 19.9964C0 25.0806 0.220529 28.9619 0.493793 31.8182C0.897696 36.022 3.98031 39.1232 8.19912 39.5186C11.0396 39.7886 14.9145 40 20.0645 40C25.2146 40 29.2656 39.779 32.1217 39.5042C36.2314 39.11 39.2361 36.114 39.6329 32.0177C39.9085 29.1698 40.1303 25.2491 40.1303 20C40.1303 14.7509 39.9085 10.8291 39.6329 7.98232M30.8345 27.127C30.2376 27.2727 29.6168 27.3181 29.0019 27.3145C28.6783 27.3145 28.4542 27.305 28.0347 27.262C26.3484 27.0911 25.1918 26.5297 24.4391 25.9109C24.3636 25.8488 24.2126 25.7986 24.052 25.918C23.919 26.0399 23.919 26.1964 24.0149 26.4293C24.0628 26.5297 24.3205 26.943 24.3205 26.943C24.3205 26.943 24.5482 27.3492 24.6417 27.4949C25.3752 28.4912 26.0212 29.2199 26.5881 29.7706C27.0747 30.258 27.2425 31.0285 26.9501 31.7178C26.8626 31.9341 26.7307 32.1156 26.5677 32.2817C25.8798 32.9841 24.7364 32.9626 24.0652 32.3187C23.3521 31.6259 22.6354 30.8565 21.7533 29.5735C21.0485 28.5999 20.5236 27.5081 20.2036 26.3505C20.1796 26.2657 20.1328 26.2155 20.0657 26.2155C19.9986 26.2155 19.9531 26.2657 19.9279 26.3505C19.6079 27.5081 19.0829 28.5987 18.3782 29.5735C17.4961 30.8565 16.7794 31.6259 16.0662 32.3187C15.3951 32.9626 14.2529 32.9841 13.5637 32.2817C13.4007 32.1156 13.2689 31.9341 13.1814 31.7178C12.8878 31.0274 13.0567 30.2568 13.5433 29.7706C14.1102 29.2199 14.7575 28.4912 15.4898 27.4949C15.5832 27.3492 15.811 26.943 15.811 26.943C15.811 26.943 16.0686 26.5297 16.1166 26.4293C16.2125 26.1964 16.2125 26.0387 16.0794 25.918C15.9176 25.7974 15.7678 25.8488 15.6923 25.9109C14.9408 26.5297 13.7831 27.0923 12.0967 27.262C11.6772 27.3038 11.4519 27.3145 11.1295 27.3145C10.5147 27.3181 9.89383 27.2727 9.29817 27.127C8.34893 26.8725 7.79521 25.8715 8.0517 24.9265C8.30219 24.0031 9.24184 23.4428 10.1767 23.6626C10.6405 23.7475 11.3512 23.7761 11.8666 23.6865C13.517 23.493 14.7946 22.48 14.936 20.6487C14.9756 19.5986 14.5657 18.938 14.012 18.1711C13.2869 17.1055 12.4958 15.7747 12.4958 14.0688C12.4958 10.0084 16.1465 6.81758 20.0681 6.81758C23.9897 6.81758 27.6404 10.0084 27.6404 14.0688C27.6404 15.7747 26.8494 17.1043 26.1243 18.1711C25.5706 18.938 25.1607 19.5986 25.2002 20.6487C25.3404 22.48 26.6181 23.493 28.2696 23.6865C28.7838 23.7749 29.4957 23.7463 29.9596 23.6626C30.8944 23.444 31.8353 24.0031 32.0845 24.9265C32.3398 25.8727 31.7861 26.8725 30.8381 27.127" fill="#202737"/>
</svg>
