<svg width="188" height="40" viewBox="0 0 188 40" fill="none" xmlns="http://www.w3.org/2000/svg">
<path d="M56.4728 28.9487C51.324 28.9487 47.2261 24.8508 47.2261 19.7371C47.2261 14.6234 51.324 10.5254 56.4728 10.5254C61.5514 10.5254 65.6494 14.6234 65.6494 19.7371C65.6494 24.8508 61.5514 28.9487 56.4728 28.9487ZM56.4728 24.7107C59.0997 24.7107 61.2012 22.5741 61.2012 19.7371C61.2012 16.9 59.1347 14.7635 56.4728 14.7635C53.7408 14.7635 51.6743 16.9 51.6743 19.7371C51.6743 22.5741 53.7408 24.7107 56.4728 24.7107Z" fill="#202737"/>
<path d="M80.5975 17.1454C79.7398 15.6533 78.2058 14.7635 76.507 14.7635C73.81 14.7635 71.8486 16.935 71.8486 19.7721C71.8486 22.5741 73.81 24.7457 76.507 24.7457C78.2554 24.7457 79.8292 23.7682 80.6709 22.1966L84.354 24.5156C82.7584 27.2082 79.847 28.9837 76.507 28.9837C71.3583 28.9837 67.4004 24.8858 67.4004 19.7721C67.4004 14.6234 71.3583 10.5254 76.507 10.5254C79.7903 10.5254 82.6813 12.2753 84.2841 14.9071L80.5975 17.1454Z" fill="#202737"/>
<path d="M97.1636 15.0382H93.0656V22.7114C93.0656 24.1475 93.6961 24.8129 94.992 24.8129H97.1636V28.9109H94.3265C90.5438 28.9109 88.6874 27.0896 88.6874 23.2718V15.0382H85.5352V11.1154H88.6874V6.77224L93.0656 5.40625V11.1154H97.1636V15.0382Z" fill="#202737"/>
<path d="M106.83 10.5254C111.138 10.5254 114.36 13.5025 114.36 17.8807V28.9487H110.087V26.4619C108.791 27.8629 106.76 28.9137 104.518 28.9487C101.541 28.9487 98.9143 26.9873 98.9143 23.6249C98.9143 20.4376 101.296 18.6162 104.834 17.9157L109.982 16.935C109.632 15.464 108.511 14.3432 106.83 14.3432C105.149 14.3432 103.573 15.3939 102.627 16.7249L99.2888 14.6506L99.4047 14.3782C101.051 12.0665 103.958 10.5254 106.83 10.5254ZM105.674 25.236C107.986 25.236 110.087 23.4848 110.087 21.1731V20.3675L105.604 21.2431C104.098 21.5934 103.187 22.364 103.187 23.3797C103.187 24.4305 104.133 25.236 105.674 25.236Z" fill="#202737"/>
<path d="M129.53 5.40625H133.908V28.883H129.53V26.3031C128.515 27.8442 126.728 28.9651 124.311 28.9651C119.828 28.9651 116.361 25.1123 116.396 19.7534C116.466 14.4646 119.898 10.5417 124.382 10.5417C126.693 10.5417 128.444 11.5925 129.53 13.0285V5.40625ZM125.187 24.762C127.709 24.762 129.635 22.7305 129.635 19.7534C129.635 16.7412 127.709 14.7448 125.222 14.7448C122.7 14.7448 120.844 16.8463 120.844 19.7884C120.844 22.6605 122.665 24.727 125.187 24.762Z" fill="#202737"/>
<path d="M153.04 18.266C153.145 19.2117 153.145 20.2975 153.005 21.4883H140.676C141.166 23.6949 142.637 24.9558 144.879 24.9558C146.84 24.9558 148.487 23.9751 149.257 22.5391L152.69 24.5005C151.219 27.1975 148.066 28.9487 144.809 28.9487C139.765 28.9487 136.228 24.9208 136.228 19.7371C136.228 14.5533 139.73 10.5254 144.844 10.5254C148.977 10.5254 152.48 13.1523 153.04 18.266ZM144.704 14.5183C142.462 14.5183 141.096 15.8843 140.676 18.0558H148.697C148.522 15.7442 146.735 14.5183 144.704 14.5183Z" fill="#202737"/>
<path d="M170.69 29.0139L170.69 5.40625H175.264V18.5932L181.108 11.2047H187.054L179.314 19.9979L187.35 29.0139H181.405L175.264 21.3045V29.0139H170.69Z" fill="#202737"/>
<path d="M168.94 23.3096C168.94 26.8822 165.648 28.9837 161.795 28.9837C158.409 28.9837 155.824 27.3547 154.865 24.8195L158.179 23.0432C158.891 24.1812 160.001 25.236 161.935 25.236C163.476 25.236 164.737 24.6056 164.737 23.6949C164.737 22.6792 163.301 22.1538 161.269 21.6284C158.853 20.998 155.35 19.9472 155.35 16.1294C155.35 12.6269 158.362 10.5254 162.005 10.5254C165.037 10.5254 167.348 11.9919 168.344 14.3075L164.985 16.1497C164.504 15.0382 163.437 14.2381 161.97 14.2381C160.639 14.2381 159.553 14.9036 159.553 15.8492C159.553 16.7949 160.674 17.2503 162.495 17.7406C162.56 17.7571 162.627 17.774 162.695 17.7912C164.948 18.3594 168.94 19.3665 168.94 23.3096Z" fill="#202737"/>
<path d="M39.6341 7.98232C39.2374 3.88484 36.2326 0.889977 32.1229 0.495759C29.2656 0.221001 25.3309 0 20.0657 0C14.8006 0 11.0396 0.216223 8.20032 0.481424C3.9815 0.876837 0.896498 3.97802 0.493793 8.18182C0.21933 11.0345 0 14.9122 0 19.9964C0 25.0806 0.220529 28.9619 0.493793 31.8182C0.897696 36.022 3.98031 39.1232 8.19912 39.5186C11.0396 39.7886 14.9145 40 20.0645 40C25.2146 40 29.2656 39.779 32.1217 39.5042C36.2314 39.11 39.2361 36.114 39.6329 32.0177C39.9085 29.1698 40.1303 25.2491 40.1303 20C40.1303 14.7509 39.9085 10.8291 39.6329 7.98232M30.8345 27.127C30.2376 27.2727 29.6168 27.3181 29.0019 27.3145C28.6783 27.3145 28.4542 27.305 28.0347 27.262C26.3484 27.0911 25.1918 26.5297 24.4391 25.9109C24.3636 25.8488 24.2126 25.7986 24.052 25.918C23.919 26.0399 23.919 26.1964 24.0149 26.4293C24.0628 26.5297 24.3205 26.943 24.3205 26.943C24.3205 26.943 24.5482 27.3492 24.6417 27.4949C25.3752 28.4912 26.0212 29.2199 26.5881 29.7706C27.0747 30.258 27.2425 31.0285 26.9501 31.7178C26.8626 31.9341 26.7307 32.1156 26.5677 32.2817C25.8798 32.9841 24.7364 32.9626 24.0652 32.3187C23.3521 31.6259 22.6354 30.8565 21.7533 29.5735C21.0485 28.5999 20.5236 27.5081 20.2036 26.3505C20.1796 26.2657 20.1328 26.2155 20.0657 26.2155C19.9986 26.2155 19.9531 26.2657 19.9279 26.3505C19.6079 27.5081 19.0829 28.5987 18.3782 29.5735C17.4961 30.8565 16.7794 31.6259 16.0662 32.3187C15.3951 32.9626 14.2529 32.9841 13.5637 32.2817C13.4007 32.1156 13.2689 31.9341 13.1814 31.7178C12.8878 31.0274 13.0567 30.2568 13.5433 29.7706C14.1102 29.2199 14.7575 28.4912 15.4898 27.4949C15.5832 27.3492 15.811 26.943 15.811 26.943C15.811 26.943 16.0686 26.5297 16.1166 26.4293C16.2125 26.1964 16.2125 26.0387 16.0794 25.918C15.9176 25.7974 15.7678 25.8488 15.6923 25.9109C14.9408 26.5297 13.7831 27.0923 12.0967 27.262C11.6772 27.3038 11.4519 27.3145 11.1295 27.3145C10.5147 27.3181 9.89383 27.2727 9.29817 27.127C8.34893 26.8725 7.79521 25.8715 8.0517 24.9265C8.30219 24.0031 9.24184 23.4428 10.1767 23.6626C10.6405 23.7475 11.3512 23.7761 11.8666 23.6865C13.517 23.493 14.7946 22.48 14.936 20.6487C14.9756 19.5986 14.5657 18.938 14.012 18.1711C13.2869 17.1055 12.4958 15.7747 12.4958 14.0688C12.4958 10.0084 16.1465 6.81758 20.0681 6.81758C23.9897 6.81758 27.6404 10.0084 27.6404 14.0688C27.6404 15.7747 26.8494 17.1043 26.1243 18.1711C25.5706 18.938 25.1607 19.5986 25.2002 20.6487C25.3404 22.48 26.6181 23.493 28.2696 23.6865C28.7838 23.7749 29.4957 23.7463 29.9596 23.6626C30.8944 23.444 31.8353 24.0031 32.0845 24.9265C32.3398 25.8727 31.7861 26.8725 30.8381 27.127" fill="#202737"/>
<path d="M17.8317 13.4322C17.0431 13.4322 16.4163 13.9769 16.4163 15.1536C16.4163 16.3303 17.0539 16.6266 17.8425 16.6266C18.6311 16.6266 19.2687 16.3303 19.2687 15.1536C19.2687 13.9769 18.6215 13.4322 17.8329 13.4322" fill="#202737"/>
<path d="M22.2792 13.4322C21.4905 13.4322 20.8637 13.9769 20.8637 15.1536C20.8637 16.3303 21.5013 16.6266 22.29 16.6266C23.0786 16.6266 23.7162 16.3303 23.7162 15.1536C23.7162 13.9769 23.069 13.4322 22.2804 13.4322" fill="#202737"/>
</svg>
