<svg width="120" height="80" viewBox="0 0 120 80" fill="none" xmlns="http://www.w3.org/2000/svg">
<g clip-path="url(#clip0_7_24)">
<path d="M26.2526 55.1683V54.2417C28.4969 53.7219 30.1769 51.6852 30.1769 49.2571C30.1769 46.8289 28.4969 44.7923 26.2526 44.2724V38.8241C27.4142 39.2355 28.4747 40.133 28.8678 40.5407C29.3155 41.0083 30.0579 41.0254 30.5266 40.5781C30.9958 40.1304 31.013 39.3872 30.5655 38.918C30.4759 38.8239 28.6143 36.901 26.2526 36.3875V35.4646C26.2526 34.816 25.727 34.2905 25.0784 34.2905C24.4299 34.2905 23.9043 34.816 23.9043 35.4646V36.4137C21.7077 36.9685 20.075 38.9824 20.075 41.3759C20.075 43.7696 21.7077 45.7836 23.9043 46.3386V51.6958C22.7882 51.1576 21.7182 50.0999 21.3386 49.6514C20.9214 49.1548 20.1806 49.0906 19.6844 49.5077C19.1879 49.9248 19.1235 50.6654 19.5407 51.1618C19.7757 51.4416 21.6257 53.5718 23.9043 54.1979V55.1682C23.9043 55.8168 24.4299 56.3423 25.0784 56.3423C25.7269 56.3425 26.2526 55.8168 26.2526 55.1683ZM27.8286 49.2571C27.8286 50.3705 27.1811 51.33 26.2526 51.7682V46.746C27.1811 47.1842 27.8286 48.1437 27.8286 49.2571ZM22.4233 41.3761C22.4233 40.3012 23.0268 39.3697 23.9043 38.9121V43.8405C23.0268 43.3829 22.4233 42.4513 22.4233 41.3761Z" fill="#7A17BF"/>
<path d="M22.8434 66.5145C22.8844 66.5187 22.9249 66.5209 22.9656 66.5209C23.2545 66.5209 23.5348 66.4143 23.7515 66.219C23.9987 65.9964 24.1398 65.6794 24.1398 65.3467V58.5716C24.1398 57.9941 23.7197 57.5024 23.1493 57.412C17.9145 56.5828 13.7317 52.3322 12.9774 47.075C12.8946 46.497 12.3993 46.0678 11.8152 46.0678H5.06715C4.73651 46.0678 4.42121 46.2073 4.1986 46.4518C3.97613 46.6965 3.86702 47.0234 3.89817 47.3526C4.85048 57.4064 12.8181 65.4651 22.8434 66.5145ZM10.8333 48.4159C11.4139 51.1183 12.7393 53.5738 14.7025 55.5669C16.6667 57.5609 19.1011 58.9221 21.7916 59.5396V63.9977C13.913 62.6136 7.70239 56.3263 6.40238 48.4161L10.8333 48.4159Z" fill="#202737"/>
<path d="M5.68207 58.6266C5.34956 58.0699 4.62863 57.8884 4.07209 58.2206C3.51523 58.553 3.33363 59.2741 3.66615 59.8306C3.69495 59.879 3.72392 59.9271 3.75335 59.9751C3.97487 60.3372 4.36077 60.5368 4.75607 60.5368C4.96491 60.5368 5.17657 60.4812 5.36756 60.3641C5.92082 60.0257 6.0949 59.303 5.75659 58.7498L5.68207 58.6266Z" fill="#202737"/>
<path d="M1.95364 52.0114C2.59863 51.9449 3.06751 51.368 3.00097 50.723L2.98657 50.5777C2.92583 49.9321 2.35425 49.459 1.70753 49.5188C1.06191 49.5796 0.587872 50.1522 0.648615 50.7979L0.665053 50.9643C0.72736 51.5682 1.2371 52.0179 1.83152 52.0179C1.87176 52.0179 1.91262 52.0157 1.95364 52.0114Z" fill="#202737"/>
<path d="M3.93119 54.8795L3.88376 54.7405C3.67648 54.1263 3.0102 53.7961 2.39573 54.0034C1.78126 54.2107 1.4514 54.877 1.65868 55.4915L1.71253 55.6488C1.88083 56.1343 2.33546 56.4386 2.82186 56.4386C2.9493 56.4386 3.07924 56.4176 3.20651 56.3735C3.81926 56.1612 4.14364 55.4921 3.93119 54.8795Z" fill="#202737"/>
<path d="M23.6612 68.6517L23.5931 68.6516C22.9445 68.6516 22.4189 69.1771 22.4189 69.8257C22.4189 70.4743 22.9445 70.9998 23.5931 70.9998L23.6427 71C23.6458 71 23.649 71 23.6521 71C24.2963 71 24.8211 70.4804 24.8261 69.8351C24.8313 69.1865 24.3096 68.6567 23.6612 68.6517Z" fill="#202737"/>
<path d="M19.4609 68.2613L19.3118 68.2322C18.6756 68.1052 18.058 68.5202 17.9323 69.1563C17.8064 69.7924 18.2204 70.4101 18.8564 70.5357L19.0147 70.5665C19.09 70.5812 19.165 70.5881 19.239 70.5881C19.7903 70.5881 20.282 70.1981 20.3905 69.6369C20.5137 69.0002 20.0974 68.3843 19.4609 68.2613Z" fill="#202737"/>
<path d="M15.3531 67.0279L15.216 66.9699C14.6197 66.7159 13.9297 66.9927 13.6752 67.589C13.4206 68.1855 13.6979 68.8753 14.2944 69.1298L14.4456 69.1937C14.5938 69.2558 14.7476 69.2853 14.899 69.2853C15.358 69.2853 15.7938 69.0144 15.9823 68.5647C16.2331 67.9665 15.9513 67.2784 15.3531 67.0279Z" fill="#202737"/>
<path d="M8.25251 62.0565C7.8115 61.5812 7.0685 61.5535 6.59321 61.9945C6.11791 62.4355 6.09005 63.1785 6.53121 63.6538L6.64111 63.7718C6.87234 64.0189 7.18513 64.1438 7.49886 64.1438C7.78629 64.1438 8.07435 64.0389 8.30072 63.8271C8.77429 63.384 8.79903 62.641 8.35599 62.1675L8.25251 62.0565Z" fill="#202737"/>
<path d="M11.5965 64.9663L11.4767 64.8826C10.9468 64.5084 10.2143 64.6347 9.84027 65.1645C9.46626 65.6943 9.59244 66.427 10.1222 66.801L10.259 66.8966C10.463 67.0378 10.696 67.1058 10.9267 67.1058C11.2989 67.1058 11.665 66.9292 11.893 66.6001C12.262 66.067 12.1294 65.3356 11.5965 64.9663Z" fill="#202737"/>
<path d="M25.0784 24C19.6744 24 14.5227 26.0322 10.5723 29.7225C6.64283 33.393 4.25932 38.3604 3.86043 43.7098C3.83616 44.0354 3.94857 44.3565 4.17087 44.5959C4.39302 44.8351 4.70487 44.9713 5.03144 44.9713H11.7643C12.3618 44.9713 12.8642 44.5223 12.9311 43.9285C13.6279 37.7343 18.8503 33.0634 25.0786 33.0634C31.821 33.0634 37.3063 38.5602 37.3063 45.3166C37.3063 51.4563 32.7295 56.6783 26.6601 57.4632C26.0747 57.539 25.6366 58.0375 25.6366 58.6278V65.3832C25.6366 65.7121 25.7745 66.0257 26.0167 66.248C26.2343 66.4476 26.5178 66.5574 26.8107 66.5574C26.8439 66.5574 26.8774 66.556 26.9109 66.5531C32.2014 66.1004 37.1054 63.6904 40.7196 59.7674C44.3549 55.8213 46.3569 50.6894 46.3569 45.3166C46.3567 33.5625 36.8113 24 25.0784 24ZM27.9847 64.0596V59.6222C34.7059 58.2593 39.6544 52.2835 39.6544 45.3163C39.6544 37.265 33.1155 30.7148 25.0784 30.7148C18.0074 30.7148 12.0242 35.7644 10.7523 42.6227H6.33897C7.65385 33.3997 15.6518 26.3483 25.0784 26.3483C35.5166 26.3483 44.0084 34.8574 44.0084 45.3163C44.0084 54.6501 37.0672 62.6454 27.9847 64.0596Z" fill="#202737"/>
</g>
<g clip-path="url(#clip1_7_24)">
<path d="M62.296 50.432C59.536 50.408 57.376 49.568 55.816 47.912C54.28 46.256 53.512 44.024 53.512 41.216C53.512 38.432 54.316 36.212 55.924 34.556C57.556 32.9 59.776 32.072 62.584 32.072C65.488 32.072 67.732 32.936 69.316 34.664C70.924 36.368 71.728 38.612 71.728 41.396C71.728 44.18 70.864 46.376 69.136 47.984C67.408 49.592 65.128 50.408 62.296 50.432ZM66.904 41.396C66.904 39.74 66.532 38.444 65.788 37.508C65.068 36.548 64.036 36.068 62.692 36.068C61.324 36.068 60.256 36.488 59.488 37.328C58.72 38.168 58.336 39.452 58.336 41.18C58.336 42.908 58.66 44.216 59.308 45.104C59.98 45.992 61 46.436 62.368 46.436C63.712 46.436 64.804 46.04 65.644 45.248C66.484 44.432 66.904 43.148 66.904 41.396ZM82.7024 36.068C81.3824 36.068 80.3504 36.572 79.6064 37.58C78.8624 38.564 78.4904 39.8 78.4904 41.288C78.4904 42.8 78.8624 44.036 79.6064 44.996C80.3504 45.956 81.3824 46.436 82.7024 46.436C83.5184 46.436 84.2504 46.34 84.8984 46.148C85.5704 45.932 86.3264 45.632 87.1664 45.248L88.4984 48.632C87.6824 49.256 86.6864 49.712 85.5104 50C84.3584 50.288 83.4104 50.432 82.6664 50.432C79.8344 50.432 77.6264 49.604 76.0424 47.948C74.4584 46.292 73.6664 44.072 73.6664 41.288C73.6664 38.504 74.4584 36.272 76.0424 34.592C77.6264 32.912 79.8344 32.072 82.6664 32.072C83.4104 32.072 84.3464 32.228 85.4744 32.54C86.6264 32.852 87.6344 33.308 88.4984 33.908L87.1664 37.256C86.3264 36.872 85.5704 36.584 84.8984 36.392C84.2504 36.176 83.5184 36.068 82.7024 36.068ZM101.614 49.64C101.23 49.952 100.678 50.204 99.9582 50.396C99.2622 50.612 98.6382 50.72 98.0862 50.72C95.9262 50.72 94.2222 50.18 92.9742 49.1C91.7502 47.996 91.1382 46.436 91.1382 44.42V36.176H88.7982V32.576H91.1382V28.436L95.7822 27.608V32.576H98.9502L100.39 36.176H95.7822V43.592C95.7822 44.504 95.9982 45.26 96.4302 45.86C96.8622 46.436 97.4982 46.724 98.3382 46.724C98.6502 46.724 98.9622 46.688 99.2742 46.616C99.5862 46.544 99.9102 46.424 100.246 46.256L101.614 49.64ZM106.621 44.78C106.621 45.284 106.825 45.74 107.233 46.148C107.641 46.532 108.181 46.724 108.853 46.724C109.501 46.724 110.149 46.58 110.797 46.292C111.469 46.004 112.105 45.572 112.705 44.996V42.332H109.177C108.361 42.332 107.725 42.584 107.269 43.088C106.837 43.592 106.621 44.156 106.621 44.78ZM108.925 50.432C106.789 50.432 105.205 49.916 104.173 48.884C103.141 47.828 102.625 46.46 102.625 44.78C102.625 42.98 103.237 41.6 104.461 40.64C105.685 39.68 107.281 39.2 109.249 39.2H112.669C112.645 38.312 112.381 37.628 111.877 37.148C111.397 36.644 110.725 36.392 109.861 36.392C109.045 36.392 108.157 36.512 107.197 36.752C106.237 36.968 105.433 37.232 104.785 37.544L103.525 33.656C104.197 33.2 105.217 32.828 106.585 32.54C107.977 32.228 109.045 32.072 109.789 32.072C111.877 32.072 113.665 32.684 115.153 33.908C116.641 35.108 117.385 36.644 117.385 38.516V50H114.973L113.821 48.524C113.173 49.028 112.405 49.472 111.517 49.856C110.653 50.24 109.789 50.432 108.925 50.432Z" fill="#202737"/>
<path d="M53.608 68V56.36H55.072C55.216 56.648 55.36 56.936 55.504 57.224C55.664 57.496 55.816 57.768 55.96 58.04C56.424 57.64 57 57.264 57.688 56.912C58.376 56.544 59.032 56.36 59.656 56.36L60.208 58.544C59.632 58.544 58.992 58.704 58.288 59.024C57.6 59.344 56.944 59.792 56.32 60.368V68H53.608ZM66.3432 68.288C64.5352 68.272 63.1432 67.712 62.1672 66.608C61.1912 65.488 60.7032 64 60.7032 62.144C60.7192 60.32 61.2392 58.856 62.2632 57.752C63.2872 56.632 64.7112 56.064 66.5352 56.048C68.4072 56.048 69.8472 56.624 70.8552 57.776C71.8632 58.928 72.3672 60.424 72.3672 62.264C72.3512 64.088 71.7992 65.552 70.7112 66.656C69.6232 67.744 68.1672 68.288 66.3432 68.288ZM69.5832 62.264C69.5832 61.096 69.3352 60.16 68.8392 59.456C68.3592 58.736 67.6152 58.376 66.6072 58.376C65.5992 58.376 64.8312 58.704 64.3032 59.36C63.7752 60 63.5112 60.92 63.5112 62.12C63.5112 63.336 63.7352 64.288 64.1832 64.976C64.6312 65.648 65.3592 65.984 66.3672 65.984C67.3752 65.984 68.1592 65.672 68.7192 65.048C69.2792 64.424 69.5672 63.496 69.5832 62.264ZM75.7084 54.488C75.2604 54.488 74.8844 54.336 74.5804 54.032C74.2764 53.728 74.1244 53.352 74.1244 52.904C74.1084 52.456 74.2524 52.08 74.5564 51.776C74.8764 51.456 75.2604 51.296 75.7084 51.296C76.1564 51.296 76.5324 51.456 76.8364 51.776C77.1564 52.08 77.3164 52.456 77.3164 52.904C77.3164 53.352 77.1564 53.728 76.8364 54.032C76.5324 54.336 76.1564 54.488 75.7084 54.488ZM74.3404 68V56.36H77.0764V68H74.3404Z" fill="#7A17BF"/>
</g>
<defs>
<clipPath id="clip0_7_24">
<rect width="47" height="47" fill="white" transform="translate(0 24)"/>
</clipPath>
<clipPath id="clip1_7_24">
<rect width="68" height="77" fill="white" transform="translate(52 3)"/>
</clipPath>
</defs>
</svg>
